PathFileType	4	(X/Y/Z)	/Users/itak/Documents/Research/Walk-IL/dataset/trc/00023_00004.trc
DataRate	CameraRate	NumFrames	NumMarkers	Units	OrigDataRate	OrigDataStartFrame	OrigNumFrames
100.000000	100.000000	4	53	mm	100.000000	105	844
Frame#	Time	RPSI			LPSI			L3			STRN			T10			C7			CLAV			RBAK			LBAK			LSHO			LUPA			LAEL			LAOL			LWTS			LWPS			LFRA			LIFD			LHPS			LHTS			RSHO			RUPA			RAEL			RAOL			RWTS			RWPS			RFRA			RIFD			RHTS			RHPS			RBHD			LFHD			RFHD			LBHD			LHIP			RHIP			RASI			LASI			LKNE			LTHI			LANK			LTIP			LTOE			LMT1			LMT5			LHEE			RKNE			RTHI			RANK			RTIP			RTOE			RMT1			RMT5			RHEE			
		X1	Y1	Z1	X2	Y2	Z2	X3	Y3	Z3	X4	Y4	Z4	X5	Y5	Z5	X6	Y6	Z6	X7	Y7	Z7	X8	Y8	Z8	X9	Y9	Z9	X10	Y10	Z10	X11	Y11	Z11	X12	Y12	Z12	X13	Y13	Z13	X14	Y14	Z14	X15	Y15	Z15	X16	Y16	Z16	X17	Y17	Z17	X18	Y18	Z18	X19	Y19	Z19	X20	Y20	Z20	X21	Y21	Z21	X22	Y22	Z22	X23	Y23	Z23	X24	Y24	Z24	X25	Y25	Z25	X26	Y26	Z26	X27	Y27	Z27	X28	Y28	Z28	X29	Y29	Z29	X30	Y30	Z30	X31	Y31	Z31	X32	Y32	Z32	X33	Y33	Z33	X34	Y34	Z34	X35	Y35	Z35	X36	Y36	Z36	X37	Y37	Z37	X38	Y38	Z38	X39	Y39	Z39	X40	Y40	Z40	X41	Y41	Z41	X42	Y42	Z42	X43	Y43	Z43	X44	Y44	Z44	X45	Y45	Z45	X46	Y46	Z46	X47	Y47	Z47	X48	Y48	Z48	X49	Y49	Z49	X50	Y50	Z50	X51	Y51	Z51	X52	Y52	Z52	X53	Y53	Z53	

106	1.05	29.93510055541992	1074.44482421875	1134.076904296875	11.66844177246094	1064.384521484375	971.9161987304688	17.35165977478027	1127.651611328125	1044.319946289062	252.0631408691406	1310.067749023438	1031.84033203125	-2.00050163269043	1275.6064453125	1040.930297851562	62.48886489868164	1539.553833007812	1026.091430664062	215.6773529052734	1437.983032226562	1027.240234375	5.466313362121582	1407.379028320312	1110.13818359375	37.33847045898438	1497.99609375	931.6006469726562	134.6821441650391	1498.176635742188	853.8001708984375	93.55290985107422	1375.909545898438	778.784423828125	80.87421417236328	1160.24267578125	751.6456909179688	34.99465942382812	1147.942993164062	846.516845703125	169.5069427490234	904.990478515625	792.6522216796875	88.03920745849609	891.55224609375	760.647705078125	89.82733917236328	1043.99658203125	742.0313720703125	191.5483856201172	717.51904296875	811.4263916015625	118.2899856567383	800.5426025390625	757.7318725585938	186.6943664550781	808.24609375	778.6015625	142.6749420166016	1523.861450195312	1194.764526367188	125.747917175293	1458.888549804688	1270.28271484375	69.49106597900391	1195.517822265625	1306.455932617188	63.41544342041016	1164.529907226562	1211.571655273438	170.1998291015625	920.4232788085938	1287.165649414062	106.1428604125977	916.126220703125	1353.448120117188	75.92645263671875	1119.571533203125	1325.427978515625	174.3724822998047	732.7509765625	1285.291137695312	193.8538665771484	809.8966064453125	1306.431396484375	139.3498687744141	813.0609130859375	1357.648071289062	112.2292709350586	1718.377563476562	976.352783203125	327.8242797851562	1709.63232421875	1009.4501953125	285.3753051757812	1707.080444335938	920.8411254882812	180.5413818359375	1718.077392578125	1103.956909179688	98.30712127685547	960.05322265625	850.4528198242188	143.2717590332031	952.561767578125	1224.758544921875	242.3302459716797	983.2564086914062	1143.18017578125	217.1213226318359	1003.27490234375	909.9391479492188	251.8155822753906	527.4776611328125	863.0339965820312	192.0855865478516	661.8610229492188	842.7617797851562	9.908400535583496	80.11215209960938	860.2359008789062	107.109245300293	307.9741516113281	846.8466186523438	229.9988861083984	47.26361846923828	893.437255859375	175.6837158203125	57.60654449462891	919.0526733398438	128.6667938232422	65.03350830078125	824.6538696289062	-50.16110992431641	93.35771942138672	921.2246704101562	116.7055587768555	517.9257202148438	1165.578491210938	157.1152801513672	784.2410888671875	1216.32861328125	-28.26903343200684	43.08060455322266	1120.80615234375	82.90048217773438	396.1641845703125	1161.598388671875	205.9187622070312	44.83456039428711	1087.8076171875	144.6902465820312	51.47901916503906	1055.603759765625	119.6274185180664	41.30732345581055	1149.675048828125	-81.85828399658203	46.23641204833984	1073.672973632812	
107	1.06	32.28319931030273	1074.275024414062	1134.374633789062	13.9291934967041	1064.389038085938	972.2222900390625	19.62287330627441	1127.683959960938	1044.825927734375	254.6688690185547	1309.8818359375	1031.652465820312	0.9132841229438782	1275.806762695312	1041.834106445312	65.42629241943359	1539.657104492188	1026.888671875	218.4740905761719	1437.846923828125	1027.168579101562	8.619717597961426	1407.56640625	1111.193237304688	39.70619583129883	1498.145263671875	932.5192260742188	136.6778564453125	1498.192626953125	854.1829223632812	94.82330322265625	1376.001098632812	779.4183959960938	81.49582672119141	1160.380126953125	752.4107666015625	36.34766006469727	1148.149291992188	847.6590576171875	170.4243621826172	905.136474609375	792.71630859375	88.67291259765625	891.6582641601562	761.4207153320312	90.30520629882812	1044.113891601562	742.73681640625	192.6119384765625	717.6604614257812	811.3941650390625	118.904182434082	800.6738891601562	758.3501586914062	187.5150604248047	808.371826171875	778.5678100585938	146.4730834960938	1523.816772460938	1195.08154296875	129.8840026855469	1458.89111328125	1270.70849609375	73.42816162109375	1195.6845703125	1307.395385742188	66.7740478515625	1164.627807617188	1212.561279296875	172.9577789306641	920.1788330078125	1288.008666992188	109.293701171875	916.2705078125	1354.674682617188	79.74406433105469	1119.790161132812	1326.419555664062	176.2319641113281	732.4593505859375	1286.32666015625	196.2041473388672	809.54931640625	1307.314086914062	142.0167083740234	813.080322265625	1358.8095703125	115.5882110595703	1718.41162109375	976.7210083007812	331.3268737792969	1708.894897460938	1008.712219238281	288.4251708984375	1706.415893554688	920.3262329101562	184.60400390625	1717.998901367188	1103.977294921875	101.0056991577148	960.4033203125	850.4000854492188	145.4304351806641	952.1538696289062	1224.802978515625	244.6713714599609	982.996826171875	1143.37109375	219.3245849609375	1003.602233886719	910.1951904296875	259.408203125	529.0557861328125	863.3432006835938	197.7859649658203	662.8599853515625	842.8792724609375	16.86649894714355	81.61620330810547	863.8827514648438	114.5125427246094	309.2243041992188	848.8187255859375	237.0023956298828	49.05915069580078	896.7686157226562	182.8081359863281	59.50179672241211	922.4736938476562	135.5458374023438	66.33183288574219	828.1318359375	-43.03033065795898	95.23116302490234	924.9902954101562	117.7260589599609	517.7195434570312	1165.632446289062	158.8441925048828	783.9248046875	1216.276611328125	-28.265625	43.15150833129883	1120.726684570312	83.58726501464844	396.0452880859375	1161.614624023438	205.9067230224609	44.7752799987793	1087.814697265625	144.7003936767578	51.44081115722656	1055.652099609375	119.6304016113281	41.28367233276367	1149.704833984375	-81.83649444580078	46.39012145996094	1073.622436523438	
108	1.07	34.72270584106445	1074.129760742188	1134.566284179688	16.30744552612305	1064.437622070312	972.4169921875	22.00043678283691	1127.717163085938	1045.233276367188	257.3593444824219	1309.711791992188	1031.416870117188	3.967769145965576	1275.98046875	1042.689819335938	68.43197631835938	1539.749389648438	1027.6240234375	221.3439178466797	1437.721557617188	1027.049072265625	11.85508155822754	1407.725708007812	1112.186157226562	42.14963531494141	1498.287475585938	933.3848876953125	138.7483215332031	1498.209594726562	854.5148315429688	96.14806365966797	1376.10205078125	780.0079956054688	82.11161804199219	1160.528076171875	753.1359252929688	37.69680404663086	1148.375244140625	848.7498168945312	171.3618011474609	905.3034057617188	792.75732421875	89.32313537597656	891.7725830078125	762.1558837890625	90.78784942626953	1044.242309570312	743.4058227539062	193.6866455078125	717.8170776367188	811.3349609375	119.5362319946289	800.815673828125	758.954345703125	188.3467712402344	808.5289916992188	778.5045776367188	150.3163604736328	1523.776000976562	1195.340576171875	134.0734100341797	1458.897338867188	1271.077270507812	77.47969055175781	1195.840576171875	1308.267333984375	70.24263000488281	1164.71826171875	1213.481567382812	175.892822265625	919.9498291015625	1288.754272460938	112.6403045654297	916.403564453125	1355.808471679688	83.67997741699219	1120.001708984375	1327.344116210938	178.33203125	732.2019653320312	1287.246948242188	198.7740173339844	809.2214965820312	1308.067260742188	144.9244689941406	813.111083984375	1359.852783203125	118.9946594238281	1718.46533203125	977.04248046875	334.8742980957031	1708.159301757812	1007.88330078125	291.5049743652344	1705.7509765625	919.7367553710938	188.7374267578125	1717.9189453125	1103.935668945312	103.8200378417969	960.7931518554688	850.2738037109375	147.6284027099609	951.744384765625	1224.761962890625	247.0947570800781	982.7294311523438	1143.511962890625	221.6424713134766	1003.941528320312	910.4058837890625	266.7720947265625	530.6953125	863.6268920898438	203.3199157714844	663.883056640625	842.959716796875	24.85087966918945	82.57083129882812	867.4739379882812	122.2524719238281	310.2146301269531	850.7176513671875	245.0408477783203	50.81055450439453	900.5169067382812	190.8704528808594	61.296142578125	926.1942749023438	143.5537719726562	67.27030944824219	831.819091796875	-35.03408432006836	96.51559448242188	928.5523071289062	118.7923812866211	517.5076293945312	1165.657470703125	160.5965118408203	783.60986328125	1216.167724609375	-28.26773262023926	43.23857498168945	1120.634399414062	84.30992889404297	395.9153747558594	1161.582397460938	205.8949584960938	44.71522903442383	1087.822631835938	144.7103424072266	51.39205551147461	1055.701171875	119.6383285522461	41.26095581054688	1149.746704101562	-81.81048583984375	46.5643424987793	1073.565673828125	
109	1.08	37.25809097290039	1074.0126953125	1134.662475585938	18.78947639465332	1064.521240234375	972.51123046875	24.47917938232422	1127.752319335938	1045.544799804688	260.1326599121094	1309.545043945312	1031.134887695312	7.152279853820801	1276.115966796875	1043.507202148438	71.5137939453125	1539.823608398438	1028.296630859375	224.2824401855469	1437.594482421875	1026.888061523438	15.1732234954834	1407.859252929688	1113.1123046875	44.67671203613281	1498.415771484375	934.1944580078125	140.8961029052734	1498.216674804688	854.7984619140625	97.53452301025391	1376.199584960938	780.5542602539062	82.73637390136719	1160.67431640625	753.8214111328125	39.05141067504883	1148.60400390625	849.7850952148438	172.3131103515625	905.4734497070312	792.7789916992188	89.99209594726562	891.8856201171875	762.8465576171875	91.28746795654297	1044.371459960938	744.0377197265625	194.7656402587891	717.96826171875	811.2360229492188	120.1929016113281	800.9556274414062	759.5255737304688	189.1781768798828	808.6996459960938	778.4097290039062	154.2043762207031	1523.730590820312	1195.544799804688	138.3109283447266	1458.896606445312	1271.388793945312	81.63368225097656	1195.975830078125	1309.0703125	73.81308746337891	1164.789184570312	1214.330078125	179.0143432617188	919.7342529296875	1289.403076171875	116.1814804077148	916.517822265625	1356.843139648438	87.72235107421875	1120.193481445312	1328.197265625	180.6932525634766	731.9696655273438	1288.0693359375	201.5831451416016	808.914794921875	1308.698120117188	148.0759735107422	813.1394653320312	1360.77734375	122.4464874267578	1718.525390625	977.316162109375	338.4622192382812	1707.423706054688	1006.962890625	294.6116943359375	1705.081909179688	919.0731811523438	192.9348602294922	1717.830322265625	1103.830078125	106.7184143066406	961.2056274414062	850.0809326171875	149.8790283203125	951.3380126953125	1224.635375976562	249.5998229980469	982.4503784179688	1143.59228515625	224.0677795410156	1004.280639648438	910.5609130859375	273.9135437011719	532.3731689453125	863.8755493164062	208.7285766601562	664.9210815429688	843.0203857421875	33.81958770751953	82.97092437744141	870.9874877929688	130.3110656738281	310.9318542480469	852.5305786132812	254.0864105224609	52.48064041137695	904.567626953125	199.8471374511719	62.94919586181641	930.1278076171875	152.6388549804688	67.84471893310547	835.6439208984375	-26.18513488769531	97.18927001953125	931.9071655273438	119.919677734375	517.2896118164062	1165.651977539062	162.3836059570312	783.293701171875	1216.000732421875	-28.27799606323242	43.34145736694336	1120.53076171875	85.07335662841797	395.7721252441406	1161.503173828125	205.8854370117188	44.65283584594727	1087.831176757812	144.7221984863281	51.33564758300781	1055.75048828125	119.6504287719727	41.24032592773438	1149.798461914062	-81.78356170654297	46.7570686340332	1073.501708984375	
